<svg fill="#000000" version="1.1" viewBox="144 144 512 512" xmlns="http://www.w3.org/2000/svg"><g id="SVGRepo_bgCarrier" stroke-width="0"></g><g id="SVGRepo_tracerCarrier" stroke-linecap="round" stroke-linejoin="round"></g><g id="SVGRepo_iconCarrier"> <path d="m462.98 316.03h92.363l-113.36-113.36v92.367c0 12.594 8.3945 20.992 20.992 20.992zm125.95 209.92h-20.992v-20.992c0-12.594-8.3984-20.992-20.992-20.992s-20.992 8.3984-20.992 20.992v20.992h-20.992c-12.594 0-20.992 8.3984-20.992 20.992s8.3984 20.992 20.992 20.992h20.992v20.992c0 12.594 8.3984 20.992 20.992 20.992s20.992-8.3984 20.992-20.992v-20.992h20.992c12.594 0 20.992-8.3984 20.992-20.992s-8.3945-20.992-20.992-20.992zm-136.45 20.992c0-25.191 18.895-46.184 41.984-52.48 4.1992-25.191 27.289-41.984 52.48-41.984 6.2969 0 14.695 2.0977 20.992 4.1992l-0.003906-98.66h-104.96c-35.688 0-62.977-27.289-62.977-62.977l0.003906-104.96h-104.96c-35.688 0-62.977 27.289-62.977 62.977v293.89c0 35.688 27.289 62.977 62.977 62.977h203.62c-2.0977-4.1992-2.0977-8.3984-4.1992-10.496-23.09-6.3008-41.98-27.293-41.98-52.484zm-136.45-230.91h20.992c12.594 0 20.992 8.3984 20.992 20.992s-8.3984 20.992-20.992 20.992h-20.992c-12.594 0-20.992-8.3984-20.992-20.992 0-12.598 8.3945-20.992 20.992-20.992zm62.977 209.92h-62.977c-12.594 0-20.992-8.3984-20.992-20.992s8.3984-20.992 20.992-20.992h62.977c12.594 0 20.992 8.3984 20.992 20.992 0 12.598-8.3984 20.992-20.992 20.992zm-62.977-83.965c-12.594 0-20.992-8.3984-20.992-20.992s8.3984-20.992 20.992-20.992h125.95c12.594 0 20.992 8.3984 20.992 20.992s-8.3984 20.992-20.992 20.992z"></path> </g></svg>