<svg fill="#000000" version="1.1" viewBox="144 144 512 512" xmlns="http://www.w3.org/2000/svg"><g id="SVGRepo_bgCarrier" stroke-width="0"></g><g id="SVGRepo_tracerCarrier" stroke-linecap="round" stroke-linejoin="round"></g><g id="SVGRepo_iconCarrier"> <g> <path d="m500.76 374.81c-15.113-15.113-34.762-22.672-54.914-22.672-19.648 0-39.801 7.5586-54.914 22.672-30.23 30.23-30.23 79.602 0 109.83 30.23 30.23 79.602 30.23 109.83 0 30.223-30.23 30.223-79.605-0.003906-109.83zm-7.5586 102.78c-13.098 13.098-30.73 19.648-47.863 19.648-17.129 0-34.762-6.5508-47.863-19.648-26.199-26.199-26.199-69.023 0-95.723 12.594-12.594 29.727-19.648 47.863-19.648 18.137 0 35.266 7.0547 47.863 19.648 26.703 26.195 26.703 69.02 0 95.723z"></path> <path d="m512.85 525.45 52.898 52.898 28.719-28.719-52.898-52.898z"></path> <path d="m486.15 388.91c-10.578-10.578-25.191-16.625-40.305-16.625s-29.727 6.0469-40.305 16.625c-10.578 10.578-16.625 25.191-16.625 40.305s6.0469 29.727 16.625 40.305c10.578 10.578 25.191 16.625 40.305 16.625s29.727-6.0469 40.305-16.625c10.578-10.578 16.625-25.191 16.625-40.305 0.003906-15.113-5.5391-29.219-16.625-40.305zm-58.945-5.0391h35.266c3.0234 0 5.0391 2.5195 5.0391 5.0391 0 3.0234-2.5195 5.0391-5.0391 5.0391h-35.266c-3.0234 0-5.0391-2.5195-5.0391-5.0391 0.003907-3.0234 2.5195-5.0391 5.0391-5.0391zm-15.617 65.496c0-3.0234 2.5195-5.0391 5.0391-5.0391h39.801c3.0234 0 5.0391 2.5195 5.0391 5.0391 0 3.0234-2.5195 5.0391-5.0391 5.0391h-39.801c-2.5195 0-5.0391-2.0156-5.0391-5.0391zm52.395 25.191h-34.258c-3.0234 0-5.0391-2.5195-5.0391-5.0391 0-3.0234 2.5195-5.0391 5.0391-5.0391h34.258c3.0234 0 5.0391 2.5195 5.0391 5.0391 0 2.5195-2.0156 5.0391-5.0391 5.0391zm20.656-58.441h-78.09c-3.0234 0-5.0391-2.5195-5.0391-5.0391 0-3.0234 2.5195-5.0391 5.0391-5.0391h78.09c3.0234 0 5.0391 2.5195 5.0391 5.0391s-2.0156 5.0391-5.0391 5.0391z"></path> <path d="m500.76 214.09-38.289-38.289c-3.0234-3.0234-7.5586-3.0234-10.578 0-3.0234 3.0234-3.0234 7.5586 0 10.578l7.0547 7.0547-40.809 28.215-9.0703-9.0703c-3.0234-3.0234-8.0625-3.0234-10.578 0-1.5117 1.5117-2.0156 3.5273-2.0156 5.0391 0 2.0156 1.0078 4.0312 2.0156 5.0391l21.16 23.176-31.234 31.234c-0.50391 0.50391-1.0078 1.0078-1.0078 1.5117l-2.5195 6.0469c-1.0078 2.0156-0.50391 4.0312 1.0078 5.543 1.0078 1.0078 2.5195 1.5117 3.5273 1.5117 0.50391 0 1.5117 0 2.0156-0.50391l6.0469-2.5195c0.50391-0.50391 1.0078-0.50391 1.5117-1.0078l32.242-32.242 22.168 22.168c1.5117 1.5117 3.5273 2.0156 5.0391 2.0156 2.0156 0 4.0312-1.0078 5.543-2.0156 1.5117-1.5117 2.0156-3.5273 2.0156-5.0391 0-2.0156-1.0078-4.0312-2.0156-5.0391l-9.0703-9.0703 28.215-41.312 7.0547 7.0547c3.0234 3.0234 7.5586 3.0234 10.578 0 3.0156-2.5234 3.0156-7.5586-0.007812-10.078z"></path> <path d="m278.58 582.88h277.09l-53.906-53.91c-2.0156-2.0156-2.0156-5.0391 0-7.0547l3.5273-3.5273-14.105-14.105c-13.602 8.0625-28.719 12.594-43.832 13.098h-0.50391l-133.01 0.003907c-3.0234 0-5.0391-2.5195-5.0391-5.0391 0-3.0234 2.5195-5.0391 5.0391-5.0391h90.688c-7.5586-4.0312-14.609-9.0703-21.16-15.617-4.5352-4.5352-8.5664-10.078-12.09-15.113h-56.934c-3.0234 0-5.0391-2.5195-5.0391-5.0391 0-3.0234 2.5195-5.0391 5.0391-5.0391h51.387c-1.5117-4.0312-3.0234-7.5586-4.5352-11.586h-46.852c-3.0234 0-5.0391-2.5195-5.0391-5.0391 0-3.0234 2.5195-5.0391 5.0391-5.0391h44.84c-1.5117-9.5742-1.5117-19.145 0-28.215h-45.344c-3.0234 0-5.0391-2.5195-5.0391-5.0391 0-3.0234 2.5195-5.0391 5.0391-5.0391h47.359c1.0078-4.0312 2.5195-7.5586 4.0312-11.586l-51.391 0.003907c-3.0234 0-5.0391-2.5195-5.0391-5.0391 0-3.0234 2.5195-5.0391 5.0391-5.0391h56.93c3.5273-6.0469 7.5586-11.586 12.594-16.625 34.258-34.258 90.184-34.258 124.44 0 29.223 29.223 33.25 74.059 12.594 108.32l14.105 14.105 3.5273-3.5273c2.0156-2.0156 5.0391-2.0156 7.0547 0l15.113 15.113 0.003907-239.81h-94.215l2.0156 2.0156c2.5195 2.5195 3.5273 5.543 3.5273 9.0703 0 3.5273-1.5117 6.5508-3.5273 9.0703-2.5195 2.5195-5.543 3.5273-9.0703 3.5273s-6.5508-1.5117-9.0703-3.5273l-18.641-18.641-29.223 29.223c-0.50391 0.50391-1.0078 1.0078-1.5117 1.0078l-18.137 7.5586c-0.50391 0.50391-1.5117 0.50391-2.0156 0.50391-1.5117 0-2.5195-0.50391-3.5273-1.5117-1.5117-1.5117-2.0156-3.5273-1.0078-5.543l7.5586-18.137c0.50391-0.50391 0.50391-1.0078 1.0078-1.5117l12.09-12.09-200.51-0.007812v325.96c0 10.578 4.0312 20.152 11.082 27.207 7.5586 7.0547 17.129 11.082 27.207 11.082 21.16 0 38.289-17.129 38.289-38.793 1.0078-4.0273 3.0234-6.043 6.0469-6.043zm84.133-53.91h89.68c3.0234 0 5.0391 2.5195 5.0391 5.0391 0 3.0234-2.5195 5.0391-5.0391 5.0391h-89.68c-3.0234 0-5.0391-2.5195-5.0391-5.0391 0.003907-2.5195 2.5234-5.0391 5.0391-5.0391zm-48.867 0h31.234c3.0234 0 5.0391 2.5195 5.0391 5.0391 0 3.0234-2.5195 5.0391-5.0391 5.0391h-31.234c-3.0234 0-5.0391-2.5195-5.0391-5.0391s2.0156-5.0391 5.0391-5.0391zm-37.785-213.61h204.55c3.0234 0 5.0391 2.5195 5.0391 5.0391 0 2.5195-2.5195 5.0391-5.0391 5.0391l-204.55-0.003906c-3.0234 0-5.0391-2.5195-5.0391-5.0391 0-2.5156 2.0156-5.0352 5.0391-5.0352zm-22.672 45.848c15.113 0 27.207 12.09 27.207 27.207 0 15.113-12.09 27.207-27.207 27.207-15.113 0-27.207-12.09-27.207-27.207 0-15.117 12.598-27.207 27.207-27.207zm0 62.469c15.113 0 27.207 12.09 27.207 27.207 0 15.113-12.09 27.207-27.207 27.207-15.113 0-27.207-12.09-27.207-27.207 0-15.113 12.598-27.207 27.207-27.207zm0 116.38c-15.113 0-27.207-12.09-27.207-27.207 0-15.113 12.598-27.207 27.207-27.207s27.207 12.09 27.207 27.207c-0.003906 15.113-12.094 27.207-27.207 27.207z"></path> <path d="m565.75 592.96h-282.13c-1.5117 13.602-8.5664 25.695-18.641 33.25h300.77c19.648 0 35.77-14.609 38.289-33.25z"></path> </g> </g></svg>